# xmcd CD database file
#
# Track frame offsets:
#	150
#	3175
#	20970
#	69995
#	87510
#	104966
#	123404
#	145729
#	167010
#	201823
#	242194
#	290764
#
# Disc length: 4532 seconds
#
# Revision: 0
# Processed by: cddbd v1.5.1PL0 Copyright (c) Steve Scherf et al.
# Submitted via: CDex 1.51
#
DISCID=b311b20c
DTITLE=Rene Ricochete - As Mais Tocadas Vol 06
DYEAR=2004
DGENRE=Country
TTITLE0=Abertura
TTITLE1=Colete - Luiz Ro/Wilia Santos/Trio Alto Astral
TTITLE2=Montagens Xotes 2004
TTITLE3=Beijo na Boca Ta na Moda/Remix
TTITLE4=Chorando de Dor - Racine e Rafael
TTITLE5=Nao Va Embora Remix - Eduardo Costa
TTITLE6=Doce Beijo - Bruno e Marrone
TTITLE7=Medley - Trio Alto Astral
TTITLE8=Montagem Banda Calypso 2004
TTITLE9=Montagem Bailao 2004
TTITLE10=Montagem Bailao Bonus Track
TTITLE11=Montagem Xote Dance 02
EXTD=YEAR: 2004
EXTT0=
EXTT1=
EXTT2=
EXTT3=
EXTT4=
EXTT5=
EXTT6=
EXTT7=
EXTT8=
EXTT9=
EXTT10=
EXTT11=
PLAYORDER=
